<svg baseProfile="tiny-ps" version="1.2" viewBox="0 0 320 320" xmlns="http://www.w3.org/2000/svg">
  <title>Lost Cosmonaut</title>

  <path fill="url(#radial-gradient)" d="M0 0h320v320H0z"/>
  <path d="M160 38.7c-49.708 0-90 40.291-90 90v37.667a49.383 49.383 0 0 0 2.416 15.3 48.572 48.572 0 0 0 4.888 10.535 46.027 46.027 0 0 0 2.189 3.23c.104.152.218.294.331.436.436.578.862 1.156 1.308 1.725.55.7 1.108 1.402 1.676 2.093l.01.01L79 218.936c0 9.408 2.965 18.598 8.545 26.158C103.935 267.3 130.281 281.7 160 281.7s56.065-14.4 72.455-36.606c5.59-7.57 8.545-16.76 8.545-26.157l-3.827-19.241.01-.01a90.058 90.058 0 0 0 1.676-2.093c.464-.588.91-1.194 1.364-1.79.095-.124.19-.247.275-.37a48.354 48.354 0 0 0 6.442-11.928 53.992 53.992 0 0 0 1.203-3.685 48.51 48.51 0 0 0 1.25-5.675c.408-2.558.607-5.153.607-7.768v-37.668c0-49.717-40.292-90.009-90-90.009Z" fill="#fff"/>
  <path d="M155.275 259.682c2.177-5.256-.319-11.281-5.574-13.458-5.256-2.177-11.281.319-13.458 5.574-2.177 5.256.318 11.281 5.574 13.458 5.256 2.177 11.281-.318 13.458-5.574ZM179.8 250.99h-9.5c-2.62 0-4.75 2.13-4.75 4.75s2.13 4.75 4.75 4.75h9.5c2.62 0 4.75-2.13 4.75-4.75 0-2.63-2.13-4.75-4.75-4.75Z"/>
  <path d="M160 31.7c-52.47 0-95 42.53-95 95v39.76a52.127 52.127 0 0 0 2.55 16.15 51.27 51.27 0 0 0 5.16 11.12c.72 1.17 1.49 2.3 2.31 3.41.11.16.23.31.35.46.46.61.91 1.22 1.38 1.82.58.74 1.17 1.48 1.77 2.21l.01.01-4.03 20.31c0 9.93 3.13 19.63 9.02 27.61C100.82 273 128.63 288.2 160 288.2c31.37 0 59.18-15.2 76.48-38.64 5.9-7.99 9.02-17.69 9.02-27.61l-4.04-20.31.01-.01c.6-.73 1.19-1.46 1.77-2.21.49-.62.96-1.26 1.44-1.89.1-.13.2-.26.29-.39a51.04 51.04 0 0 0 6.05-10.69c.26-.63.51-1.26.75-1.9.47-1.28.89-2.57 1.27-3.89.56-1.97 1-3.97 1.32-5.99.43-2.7.64-5.44.64-8.2v-39.76c0-52.48-42.53-95.01-95-95.01Zm0 11.61c41.07 0 75.28 29.86 82.12 69.01-2.68-3.05-5.73-5.8-9.13-8.18 0 0-.01 0-.01-.01-1.12-.78-2.26-1.54-3.41-2.29-.34-.22-.69-.44-1.04-.66-.86-.55-1.73-1.08-2.62-1.61-.35-.21-.7-.42-1.06-.63-1.2-.7-2.4-1.38-3.63-2.04-.01 0-.01-.01-.02-.01-1.22-.65-2.45-1.28-3.7-1.9-.27-.13-.54-.27-.81-.4-1.23-.59-2.46-1.17-3.72-1.73l-.63-.27c-1.15-.5-2.32-.99-3.49-1.46-.22-.09-.43-.18-.65-.26-1.28-.51-2.58-.99-3.89-1.46-.29-.1-.58-.2-.87-.31-1.34-.47-2.7-.92-4.06-1.35-9.09-2.83-18.72-4.71-28.7-5.49-3.52-.28-7.09-.43-10.69-.43-1.56 0-3.1.04-4.65.09l-1.37.06c-1.14.05-2.27.11-3.4.19-.45.03-.9.06-1.35.1-1.51.12-3.02.26-4.52.43-1.67.19-3.33.41-4.98.66-1.65.25-3.28.53-4.9.84-1.69.32-3.36.68-5.02 1.06-.43.1-.85.21-1.27.32-1.24.3-2.48.61-3.71.94-.42.12-.84.25-1.26.37-1.23.35-2.45.71-3.66 1.09-.36.11-.71.24-1.07.36-1.28.42-2.54.85-3.8 1.3-.28.1-.55.21-.82.31-1.34.5-2.66 1.01-3.97 1.55l-.57.24c-1.4.58-2.78 1.18-4.14 1.81l-.33.15c-1.44.67-2.86 1.36-4.27 2.08-.04.02-.09.04-.13.07a119.34 119.34 0 0 0-8.92 5.06c-.12.07-.24.14-.35.22-1.54.97-3.07 1.97-4.55 3.01-3.4 2.38-6.45 5.13-9.13 8.18 6.87-39.15 41.08-69.01 82.15-69.01Zm0 59.65c-22.22 0-43.85 6.56-60.9 18.48-.47.33-.93.68-1.38 1.03v-11.5c.75-.48 1.52-.94 2.29-1.4.64-.38 1.3-.76 1.97-1.14.19-.11.38-.21.57-.32 1.07-.6 2.15-1.18 3.24-1.74.44-.23.88-.45 1.32-.67.77-.39 1.55-.76 2.33-1.13.77-.36 1.54-.71 2.31-1.06.43-.19.86-.38 1.3-.57 1.09-.47 2.19-.92 3.29-1.35.1-.04.19-.07.29-.11 10.74-4.16 22.29-6.77 34.12-7.67.2-.01.39-.03.59-.04 1.17-.08 2.34-.15 3.51-.2.33-.01.66-.03 1-.04 1.39-.05 2.77-.08 4.16-.08 15.03 0 29.82 2.78 43.35 8.02l.39.15c1.24.48 2.47.99 3.68 1.51.21.09.41.18.61.27 4.96 2.18 9.73 4.7 14.24 7.55v11.5c-.45-.35-.91-.7-1.38-1.03-17.05-11.9-38.68-18.46-60.9-18.46Zm38.96 53.4-5.33 2.23c-.28.12-.5.36-.58.66l-2.24 7.91c-.28.98-1.67.98-1.94 0l-2.24-7.91c-.08-.3-.3-.54-.58-.66l-5.33-2.23c-.83-.35-.83-1.52 0-1.86l5.33-2.23c.28-.12.5-.36.58-.66l2.24-7.91c.28-.98 1.67-.98 1.94 0l2.24 7.91c.08.3.3.54.58.66l5.33 2.23c.83.34.83 1.52 0 1.86Zm-22.42 29.71-3.85 1.61c-.4.17-.7.51-.82.92l-1.63 5.74c-.39 1.37-2.34 1.37-2.73 0l-1.63-5.74a1.42 1.42 0 0 0-.82-.92l-3.85-1.61c-1.16-.49-1.16-2.13 0-2.62l3.85-1.61c.4-.17.7-.51.82-.92l1.63-5.74c.39-1.37 2.34-1.37 2.73 0l1.63 5.74c.12.42.42.75.82.92l3.85 1.61c1.16.48 1.16 2.13 0 2.62Zm-19.87-34.66-10.52 4.28c-.49.2-.85.6-1 1.09l-4.42 15.17c-.47 1.63-2.85 1.63-3.32 0l-4.42-15.17c-.14-.49-.51-.89-1-1.09l-10.52-4.28c-1.41-.58-1.41-2.53 0-3.1l10.53-4.28c.49-.2.85-.6 1-1.09l4.42-15.17c.47-1.63 2.85-1.63 3.32 0l4.42 15.17c.14.49.51.89 1 1.09l10.52 4.28c1.4.58 1.4 2.53-.01 3.1Zm70.47 91.26c-7.6 10.3-17.61 18.83-28.95 24.69-11.87 6.13-24.72 9.24-38.19 9.24-13.47 0-26.32-3.11-38.19-9.24-11.34-5.85-21.35-14.39-28.95-24.69-4.15-5.62-6.52-12.56-6.74-19.66l2.19-11.02c18.82 17.43 44 28.09 71.68 28.09 27.68 0 52.86-10.66 71.68-28.09l2.19 11.02c-.2 7.1-2.58 14.04-6.72 19.66Zm16.25-78.53v2.32c0 3.21-.39 6.41-1.14 9.5-.12.52-.26 1.03-.4 1.54-.5 1.75-1.12 3.47-1.84 5.13-.33.76-.68 1.5-1.05 2.24-.03.07-.07.13-.1.19-.27.52-.56 1.04-.85 1.55-.72 1.25-1.51 2.47-2.37 3.63l-.12.15c-.46.63-.94 1.25-1.42 1.86-.4.51-.81 1.02-1.23 1.53-.16.19-.31.38-.46.57l-.18.21c-8.06 9.67-18.06 17.72-29.21 23.48-13.38 6.91-27.85 10.41-43.02 10.41-15.17 0-29.65-3.5-43.02-10.41-11.15-5.76-21.16-13.81-29.21-23.48l-.17-.2c-.16-.2-.32-.4-.48-.59-.41-.51-.82-1.01-1.22-1.52-.5-.63-.98-1.27-1.46-1.92-.02-.03-.05-.06-.07-.09-3.44-4.66-5.81-10.11-6.96-15.84-.21-1.04-.38-2.09-.5-3.15-.19-1.59-.29-3.19-.29-4.79v-19.88c0-9.66 3.45-18.86 9.5-26.02v45.9c0 2.83.41 5.63 1.17 8.33.99 3.54 2.57 6.89 4.73 9.81 16.12 21.83 40.9 34.36 67.99 34.36 27.09 0 51.87-12.52 67.99-34.36 3.8-5.15 5.9-11.6 5.9-18.15v-45.89a40.33 40.33 0 0 1 9.5 26.02v17.56h-.01Z"/>

  <radialGradient cx="0%" cy="-27.517%" r="190.982%" id="radial-gradient">
    <stop offset="0%" stop-color="#fe5740"/>
    <stop offset="50%" stop-color="#fe7fe7"/>
    <stop offset="100%" stop-color="#7e8cff"/>
  </radialGradient>
</svg>
